<?xml version="1.0" standalone="no"?>
<!DOCTYPE svg PUBLIC "-//W3C//DTD SVG 20010904//EN"
 "http://www.w3.org/TR/2001/REC-SVG-20010904/DTD/svg10.dtd">
<svg version="1.0" xmlns="http://www.w3.org/2000/svg"
 width="781.000000pt" height="781.000000pt" viewBox="0 0 781.000000 781.000000"
 preserveAspectRatio="xMidYMid meet">
<metadata>
Created by potrace 1.11, written by Peter Selinger 2001-2013
</metadata>
<g transform="translate(0.000000,781.000000) scale(0.100000,-0.100000)"
fill="#000000" stroke="none">
<path d="M3310 7250 c-8 -11 -22 -20 -31 -20 -9 0 -20 -7 -23 -16 -5 -12 -1
-14 15 -9 15 5 19 4 15 -4 -9 -14 23 -15 58 -1 16 6 27 6 31 0 4 -6 -3 -10
-14 -10 -12 0 -21 -5 -21 -11 0 -7 -10 -9 -27 -5 -17 5 -29 3 -34 -6 -4 -7
-11 -9 -16 -5 -4 5 -1 12 7 17 8 6 11 10 5 10 -5 0 -21 -9 -35 -20 -21 -17
-22 -19 -5 -15 11 3 4 -2 -15 -11 -30 -14 -101 -21 -135 -14 -28 6 -86 -1 -80
-10 3 -5 -2 -10 -12 -10 -11 0 -5 -7 17 -18 24 -12 30 -18 18 -20 -9 -2 -27 3
-40 11 -31 20 -104 31 -113 18 -3 -6 -17 -11 -31 -11 -20 0 -24 -5 -24 -30 0
-25 4 -30 25 -30 14 0 25 -5 25 -11 0 -7 -9 -9 -21 -6 -15 4 -18 2 -10 -7 8
-10 4 -16 -15 -24 -35 -17 -44 -15 -44 8 0 16 -7 20 -30 20 -19 0 -30 -5 -30
-14 0 -25 -55 -37 -93 -21 -20 8 -67 -1 -67 -14 0 -13 56 -24 72 -15 7 4 10 4
6 -1 -4 -4 -3 -14 3 -21 14 -17 -15 -32 -65 -36 -34 -2 -36 -4 -31 -29 5 -21
2 -30 -15 -39 -11 -6 -24 -8 -29 -5 -5 3 -11 0 -13 -6 -2 -7 -17 -13 -33 -15
-22 -2 -26 -1 -15 6 16 10 15 10 -32 14 -7 1 -13 -10 -13 -24 0 -14 -4 -31 -8
-37 -5 -7 -6 -17 -3 -21 2 -4 -11 -6 -30 -4 -20 3 -41 -2 -51 -9 -12 -10 -15
-10 -9 -1 5 8 0 12 -14 12 -11 0 -20 -6 -18 -12 5 -27 -14 -58 -38 -64 l-25
-6 21 -20 c27 -26 21 -41 -20 -49 -36 -8 -50 -23 -50 -55 0 -33 -31 -39 -52
-12 l-18 23 0 -29 c0 -26 -2 -28 -29 -23 -16 3 -31 3 -35 0 -3 -3 -22 -7 -43
-9 -27 -2 -34 -1 -23 6 12 8 10 10 -8 10 -13 0 -20 -4 -17 -10 3 -5 2 -10 -4
-10 -5 0 -9 -12 -8 -27 2 -24 -2 -29 -25 -31 -22 -3 -27 0 -22 12 4 10 1 16
-8 16 -14 0 -38 -59 -38 -94 0 -10 -4 -15 -9 -12 -5 4 -5 21 2 41 9 29 8 39
-4 51 -9 9 -23 12 -33 8 -15 -6 -17 -15 -14 -56 5 -46 4 -48 -21 -48 l-26 0
29 -23 c20 -16 25 -26 18 -31 -7 -4 -12 -2 -12 3 0 19 -32 12 -37 -8 -3 -12
-11 -17 -19 -14 -9 3 -15 -2 -16 -16 0 -12 -1 -27 -2 -33 -1 -16 -26 -37 -43
-38 -7 0 -12 10 -12 23 1 16 2 18 6 5 2 -10 9 -18 15 -18 6 0 8 9 5 20 -3 13
0 20 9 20 8 0 14 10 14 25 0 16 -6 25 -15 25 -8 0 -15 -7 -15 -16 0 -11 -6
-14 -20 -9 -17 5 -20 2 -21 -27 -3 -115 -2 -112 -37 -119 -18 -4 -40 -15 -48
-25 -14 -18 -15 -18 -5 2 6 12 24 27 41 34 23 10 28 15 18 21 -11 7 -10 11 2
19 11 7 12 12 3 21 -18 18 -48 6 -46 -18 2 -14 -4 -24 -16 -28 -32 -10 -54
-81 -27 -87 12 -3 13 -6 1 -21 -11 -15 -17 -17 -35 -7 -17 9 -26 8 -45 -4 -14
-9 -28 -16 -32 -16 -4 0 -1 5 7 10 12 7 11 9 -5 10 -11 0 -38 2 -59 3 -61 3
-55 -19 6 -27 29 -4 58 -7 64 -8 6 -1 11 -7 11 -15 0 -17 -14 -17 -20 0 -3 9
-7 9 -20 -2 -9 -7 -26 -11 -37 -8 -11 3 -18 1 -14 -4 3 -5 -2 -9 -10 -9 -8 0
-20 8 -25 18 -6 9 -11 11 -11 5 0 -7 -10 -13 -23 -13 -13 0 -27 -4 -33 -9 -5
-5 -25 -11 -44 -13 -29 -2 -35 -7 -38 -30 -2 -19 2 -28 15 -31 10 -3 -10 -5
-44 -6 -35 0 -63 2 -63 7 0 4 -12 15 -27 24 -16 10 -22 18 -15 18 20 0 14 16
-7 16 -11 0 -18 -3 -15 -7 2 -4 -3 -10 -12 -13 -11 -4 -14 -12 -9 -24 16 -41
15 -84 -2 -98 -21 -16 -33 -18 -33 -5 0 5 9 11 20 14 11 3 20 13 20 22 0 15
-2 16 -17 4 -28 -24 -113 -113 -113 -118 0 -4 7 -15 15 -25 14 -19 15 -19 15
5 0 14 7 34 15 45 17 23 20 12 3 -15 -13 -21 -4 -56 12 -46 5 3 10 1 10 -4 0
-6 -7 -11 -16 -11 -12 0 -15 -6 -11 -21 5 -19 2 -21 -29 -17 -28 3 -34 1 -34
-15 0 -10 4 -16 8 -13 4 2 13 -4 20 -15 11 -16 9 -19 -8 -19 -11 0 -20 -5 -20
-11 0 -5 4 -8 9 -5 5 3 11 -3 14 -15 4 -15 2 -18 -7 -10 -10 8 -13 -4 -14 -54
-1 -44 2 -65 10 -65 6 0 9 -3 5 -6 -12 -12 -98 -23 -120 -16 -27 10 -57 5 -57
-10 0 -6 13 -8 36 -3 36 6 36 6 29 -24 -4 -21 -3 -31 5 -31 6 0 9 -4 5 -10 -9
-14 -32 -1 -38 21 -6 24 -27 25 -27 1 0 -10 -4 -22 -10 -28 -11 -11 -2 -56 10
-49 5 3 12 0 16 -7 4 -7 4 -10 -1 -6 -10 10 -35 -38 -35 -68 0 -12 4 -26 10
-29 5 -3 7 -20 4 -38 -4 -24 -3 -28 5 -17 7 9 11 10 11 3 0 -6 -4 -15 -10 -18
-13 -8 -13 -75 0 -75 5 0 12 -11 16 -25 8 -31 20 -32 28 -2 4 15 -1 27 -14 37
-16 13 -17 17 -4 28 11 10 18 4 39 -39 13 -28 22 -56 19 -60 -3 -5 -25 -9 -50
-9 -24 0 -44 -5 -44 -10 0 -13 108 -11 116 2 3 5 12 1 19 -9 13 -17 14 -17 21
0 5 14 9 15 15 6 6 -10 11 -10 25 2 11 9 15 9 10 2 -5 -9 1 -13 23 -13 16 0
31 4 33 9 2 5 14 11 28 13 20 2 26 -2 28 -19 3 -22 32 -33 32 -13 0 6 5 10 11
10 6 0 9 -9 6 -20 -3 -13 1 -24 14 -30 10 -6 19 -16 19 -22 0 -6 -3 -8 -6 -5
-4 3 -16 1 -27 -5 -20 -10 -20 -11 -2 -24 16 -12 16 -14 3 -14 -9 0 -20 5 -23
10 -3 6 -12 10 -18 9 -9 0 -9 -2 1 -6 6 -2 12 -9 12 -14 0 -6 -5 -7 -10 -4 -6
4 -10 3 -9 -2 5 -19 -13 -41 -28 -36 -12 5 -14 1 -8 -18 4 -16 3 -20 -3 -10
-8 11 -11 11 -16 0 -3 -8 -5 -5 -2 7 3 21 -4 25 -49 25 -45 0 -55 -4 -55 -23
0 -20 16 -24 23 -5 4 7 6 6 6 -4 1 -9 -8 -19 -19 -22 -15 -4 -20 -14 -20 -40
0 -20 5 -39 10 -42 8 -5 7 -11 0 -21 -9 -10 -9 -22 0 -48 9 -28 9 -44 -2 -72
-11 -32 -11 -37 7 -50 10 -8 13 -14 7 -14 -8 0 -12 -19 -12 -55 0 -30 5 -55
10 -55 6 0 10 -7 10 -16 0 -12 9 -15 38 -13 66 5 89 -8 101 -54 6 -27 7 -45 1
-51 -14 -14 -13 -53 1 -62 6 -3 14 -2 18 3 5 8 76 10 91 3 3 -1 10 -1 15 0 6
1 24 3 40 5 47 5 99 21 127 39 25 16 25 16 24 -6 -1 -18 -6 -22 -25 -20 -15 2
-21 0 -17 -7 4 -6 16 -11 27 -11 15 0 19 -7 19 -35 0 -19 5 -35 11 -35 11 0
10 -6 -7 -67 -5 -17 -2 -23 9 -23 24 0 28 -14 32 -96 2 -62 1 -73 -10 -64 -9
8 -13 28 -11 58 2 26 2 37 -1 25 -2 -13 -9 -23 -14 -23 -5 0 -9 -22 -9 -50 0
-27 5 -50 10 -50 6 0 9 -27 9 -62 -1 -50 -3 -57 -9 -33 -7 28 -8 27 -10 -15
-2 -25 -2 -55 -1 -66 1 -16 -6 -24 -24 -28 -32 -8 -32 -34 0 -42 14 -3 25 -12
25 -20 0 -11 15 -14 63 -13 56 1 59 2 30 10 -18 5 -33 12 -33 15 0 4 7 4 15 0
8 -3 15 -1 15 4 0 5 16 2 35 -7 28 -14 35 -22 36 -47 0 -27 2 -28 9 -11 6 15
9 6 9 -33 1 -33 -3 -51 -9 -47 -6 3 -10 -5 -10 -18 0 -15 7 -26 17 -29 34 -9
43 2 43 55 0 34 3 47 9 38 10 -16 31 -6 31 15 0 8 5 12 10 9 7 -4 7 -12 0 -25
-5 -10 -10 -37 -10 -60 0 -36 2 -41 19 -35 27 8 34 -19 34 -133 0 -86 1 -94
21 -104 12 -5 28 -18 34 -29 11 -18 11 -18 -8 -7 -11 7 -20 17 -20 23 0 5 -5
3 -10 -5 -5 -8 -9 -24 -9 -35 l0 -20 9 20 c8 18 9 17 9 -7 1 -16 -3 -28 -9
-28 -5 0 -10 -7 -10 -15 0 -8 5 -15 10 -15 6 0 10 7 10 15 0 8 7 15 15 15 8 0
15 6 16 13 0 6 9 -6 19 -28 10 -21 16 -44 13 -49 -4 -5 -1 -6 6 -2 8 5 14 0
18 -13 3 -12 10 -21 15 -21 6 0 8 7 4 15 -6 18 6 12 77 -33 55 -36 100 -51
137 -47 17 2 30 0 30 -4 0 -5 17 -3 38 4 37 13 71 18 105 16 15 -1 16 -5 7
-21 -6 -11 -17 -20 -25 -20 -18 0 -20 -16 -2 -23 10 -4 10 -6 0 -6 -7 -1 -13
-8 -13 -17 0 -14 -8 -16 -42 -11 -33 4 -39 3 -24 -5 25 -14 88 -3 103 19 8 10
13 12 13 4 0 -6 15 -18 32 -26 38 -16 28 -19 -20 -6 -20 6 -32 6 -32 0 0 -5
-9 -9 -20 -9 -11 0 -20 -7 -20 -15 0 -9 -9 -15 -22 -15 -19 0 -20 2 -8 10 8 5
11 10 5 10 -5 -1 -19 -7 -29 -15 -11 -8 -28 -13 -38 -9 -29 9 -58 -5 -55 -26
2 -11 6 -23 10 -26 4 -4 7 -14 7 -23 0 -13 -2 -13 -9 -2 -7 11 -10 9 -16 -9
-4 -12 -10 -18 -14 -13 -3 5 -16 9 -29 9 -23 0 -37 -26 -30 -56 2 -8 -6 -15
-17 -17 -13 -3 -16 -1 -8 4 8 6 9 14 3 23 -7 12 -12 10 -29 -9 -12 -13 -21
-31 -21 -40 1 -14 3 -13 14 2 10 13 15 15 18 5 3 -7 -2 -19 -10 -27 -13 -13
-16 -13 -27 2 -9 13 -27 17 -71 16 -50 0 -56 -2 -36 -11 22 -11 31 -38 11 -38
-5 0 -8 4 -4 9 9 16 -15 24 -30 11 -13 -11 -15 -7 -15 19 0 17 -4 31 -9 31
-14 0 -21 -42 -10 -62 5 -10 7 -23 3 -29 -4 -6 0 -15 7 -20 11 -7 10 -9 -3 -9
-20 0 -24 -15 -8 -25 7 -4 6 -13 -1 -26 -6 -11 -9 -44 -8 -73 3 -60 -4 -76
-32 -76 -13 0 -19 -7 -19 -22 0 -19 2 -20 10 -8 6 9 10 10 10 3 0 -6 -5 -15
-11 -19 -13 -8 -31 15 -25 32 3 6 -10 11 -30 12 l-34 1 0 -49 c0 -28 -4 -50
-10 -50 -5 0 -10 -11 -10 -25 0 -14 5 -25 11 -25 8 0 8 -4 1 -13 -14 -17 -26
-144 -14 -151 12 -7 38 22 45 49 4 16 5 14 6 -7 0 -15 -6 -33 -14 -42 -8 -8
-15 -32 -15 -53 0 -30 -3 -35 -11 -23 -9 12 -10 11 -4 -5 14 -43 17 -73 6 -79
-6 -4 -10 -26 -10 -49 2 -36 3 -37 7 -12 5 30 5 30 12 5 4 -14 13 -24 22 -24
12 1 16 -6 15 -25 -2 -20 2 -25 15 -23 12 2 16 -2 12 -13 -3 -8 -10 -12 -15
-9 -5 3 -9 0 -9 -7 0 -7 10 -9 25 -7 14 3 25 2 25 -2 0 -4 9 -10 20 -13 11 -3
24 -17 30 -31 5 -14 15 -25 21 -24 6 2 14 -3 17 -11 3 -10 -1 -13 -16 -9 -13
4 -23 0 -26 -8 -8 -21 5 -108 14 -94 5 9 9 9 14 1 9 -14 -2 -33 -15 -26 -5 4
-9 -5 -9 -18 0 -37 -20 -87 -36 -87 -8 0 -14 5 -14 12 0 6 -3 8 -7 4 -4 -3 -6
-24 -5 -45 3 -37 1 -39 -23 -37 -17 2 -25 -2 -25 -13 0 -30 12 -61 22 -55 5 3
7 -7 4 -23 -2 -15 -5 -32 -5 -37 -1 -6 -7 -1 -15 9 -8 11 -12 25 -9 31 2 7 -1
15 -7 19 -9 5 -10 -8 -5 -50 5 -33 4 -55 -1 -52 -5 3 -10 -13 -12 -36 -1 -22
-8 -47 -15 -55 -7 -9 -10 -16 -8 -16 5 -1 -7 -91 -16 -120 -4 -15 -7 -16 -14
-5 -6 10 -9 11 -10 2 -10 -90 -14 -111 -22 -119 -4 -4 -7 -1 -7 6 0 7 -3 11
-6 8 -3 -4 0 -16 6 -28 9 -16 9 -25 1 -33 -6 -6 -11 -21 -11 -33 0 -12 -6 -26
-13 -32 -10 -9 -12 -4 -9 25 3 27 1 34 -9 31 -10 -3 -14 -28 -15 -94 -2 -101
-12 -186 -23 -194 -4 -3 -8 -22 -9 -42 l-3 -38 2321 0 2320 0 0 23 c0 12 9 29
20 37 12 8 20 26 20 42 0 15 5 28 10 28 6 0 10 15 10 34 0 43 19 97 40 116 10
9 20 39 25 74 4 33 15 76 26 95 10 20 19 55 19 78 0 24 5 43 11 43 6 0 17 7
25 15 13 12 15 42 10 177 -5 186 -13 247 -31 254 -9 4 -15 41 -20 120 -4 63
-11 114 -16 114 -5 0 -9 -18 -9 -41 0 -33 -3 -40 -16 -35 -9 3 -18 6 -20 6 -2
0 -4 11 -4 25 0 14 -4 25 -10 25 -17 0 -11 32 8 49 10 9 21 24 25 34 5 14 15
17 39 15 32 -3 33 -2 36 40 2 33 7 43 19 40 9 -2 21 -11 27 -21 9 -14 7 -20
-6 -28 -27 -15 -22 -29 10 -29 56 0 64 -16 66 -128 2 -56 6 -105 9 -109 4 -3
7 -1 7 4 0 15 33 9 38 -7 3 -7 -2 -16 -9 -21 -10 -6 -15 -36 -16 -111 -1 -57
-5 -139 -8 -183 -4 -49 -2 -112 5 -161 11 -71 15 -81 31 -77 21 6 26 39 7 45
-10 4 -14 56 -16 206 -3 192 -2 203 17 228 20 25 21 26 21 5 0 -11 -4 -21 -10
-21 -13 0 -13 -33 0 -46 14 -14 16 -402 1 -417 -6 -6 -11 -45 -11 -89 0 -71
-2 -78 -20 -78 -18 0 -20 7 -20 75 0 127 -17 83 -24 -63 -7 -133 -3 -192 14
-192 4 0 10 -15 12 -34 2 -21 0 -34 -7 -33 -5 1 -11 -14 -12 -33 l-1 -35 8 30
9 30 -2 -30 c-2 -28 -5 -30 -49 -33 -43 -3 -48 -5 -48 -28 0 -22 4 -24 49 -24
39 0 51 4 54 18 4 16 5 16 6 0 2 -28 49 -24 54 5 l4 22 2 -22 c1 -31 31 -30
31 0 0 13 -5 28 -11 34 -9 9 -9 23 0 57 6 25 11 59 11 76 0 17 4 29 9 26 5 -3
11 7 14 22 7 35 0 41 -13 11 -10 -25 -8 27 8 201 7 68 9 76 12 40 3 -41 4 -42
7 -12 3 19 0 46 -6 62 -6 19 -6 100 1 240 8 158 7 218 -1 234 -13 23 -12 86 1
86 4 0 8 5 8 11 0 6 -7 8 -16 5 -12 -5 -15 -2 -10 10 3 8 6 18 6 20 0 3 5 2
10 -1 11 -7 14 8 3 18 -3 4 -12 -1 -19 -11 -12 -16 -13 -15 -11 5 0 12 5 19 9
17 4 -3 8 2 8 10 0 9 -4 16 -10 16 -5 0 -10 8 -10 19 0 10 -9 30 -20 44 -11
14 -20 31 -20 39 0 10 2 10 9 -1 7 -12 13 -12 24 -3 19 16 27 5 27 -37 0 -27
3 -32 10 -21 5 8 10 31 10 51 0 36 -1 36 -41 36 -52 0 -66 14 -51 48 15 33 15
32 -5 32 -49 0 -53 3 -59 43 -5 33 -10 40 -29 40 -33 0 -55 10 -55 24 0 22
-45 56 -76 57 -16 0 -23 3 -16 6 14 6 17 63 2 63 -5 0 -10 -9 -10 -20 0 -22
-15 -27 -26 -8 -4 7 -3 8 4 4 7 -4 12 -2 12 3 0 6 -12 11 -27 11 -16 0 -23 3
-16 8 6 4 -11 8 -38 9 -33 2 -49 -2 -49 -10 0 -9 -2 -9 -8 0 -4 7 -37 16 -72
20 -53 7 -65 12 -64 26 2 14 -3 16 -19 11 -19 -6 -20 -5 -10 8 14 17 8 28 -16
28 -13 0 -13 -2 -3 -9 11 -7 10 -9 -3 -14 -9 -4 -14 -3 -10 2 3 5 -1 11 -7 14
-7 2 3 9 22 14 36 9 49 35 32 61 -7 10 -14 10 -38 -2 -16 -8 -42 -19 -57 -25
-15 -6 -26 -15 -23 -20 4 -5 -3 -7 -15 -4 -14 4 -17 8 -9 13 8 5 2 11 -16 18
l-29 10 27 1 c15 1 30 5 33 11 5 9 -104 16 -185 13 -14 -1 -77 -2 -140 -4 -63
-1 -120 -6 -126 -10 -13 -10 -46 16 -58 46 -5 11 -8 44 -6 73 1 45 -1 52 -17
52 -14 0 -19 8 -21 32 -4 51 -22 59 -22 10 0 -23 -4 -42 -10 -42 -9 0 -14 29
-13 68 1 7 -2 11 -5 8 -3 -3 -11 3 -19 14 -8 11 -20 20 -27 20 -16 0 -29 27
-20 41 3 5 -6 14 -20 21 -19 8 -26 19 -26 40 0 15 -4 28 -10 28 -5 0 -10 6
-10 14 0 20 -17 29 -51 28 -16 0 -29 4 -29 9 0 5 -5 9 -11 9 -6 0 -9 -14 -7
-32 2 -28 0 -32 -16 -30 -17 3 -17 2 -4 -12 14 -13 13 -21 -11 -70 -14 -30
-32 -55 -38 -55 -16 -1 -7 -52 18 -107 19 -40 25 -74 12 -60 -4 4 -8 13 -8 19
-1 23 -28 67 -42 67 -14 0 -14 -1 -16 55 -1 27 3 39 11 38 7 -2 12 4 12 13 0
11 5 14 16 10 11 -4 14 -1 12 11 -5 27 -62 23 -66 -4 -2 -12 -13 -23 -25 -27
-27 -7 -33 0 -17 19 9 11 9 19 2 28 -7 8 -9 35 -5 67 3 30 6 63 6 73 1 9 5 17
9 17 4 0 8 8 8 18 1 16 1 16 11 0 5 -10 22 -18 36 -18 22 0 24 2 13 15 -11 13
-10 14 4 9 11 -4 16 -1 16 11 0 9 5 13 11 9 8 -4 8 -9 0 -17 -6 -6 -11 -15
-11 -19 0 -15 19 -8 46 17 25 24 26 26 11 43 -10 10 -17 25 -17 33 0 12 2 11
10 -1 10 -16 11 -14 14 35 1 13 8 20 23 21 15 1 20 -3 16 -13 -4 -11 -8 -12
-13 -3 -5 8 -10 8 -14 2 -8 -13 17 -33 35 -29 8 2 11 2 7 0 -13 -7 -9 -20 7
-27 8 -3 14 0 12 6 -1 7 14 20 33 30 19 11 27 17 18 14 -10 -3 -18 -1 -18 4 0
6 11 10 25 10 14 0 25 5 25 11 0 6 8 8 19 4 11 -3 22 -1 26 4 3 7 0 8 -9 5 -9
-3 -16 -1 -16 6 0 6 4 9 10 5 9 -6 20 4 61 55 11 14 17 19 13 11 -5 -10 -3
-12 5 -7 7 5 10 14 7 21 -2 7 2 16 10 19 11 4 13 -2 8 -35 -6 -37 -5 -41 12
-37 16 3 19 11 16 56 -2 34 1 52 8 52 6 0 8 6 4 13 -4 6 2 4 14 -7 14 -12 27
-16 39 -11 10 5 26 7 36 6 10 -1 17 4 17 15 0 11 -6 15 -20 11 -11 -3 -20 -1
-20 4 0 5 9 14 20 21 11 7 20 22 20 34 0 14 6 21 16 20 9 0 19 5 21 12 3 8 -1
10 -14 5 -17 -6 -16 -4 2 18 11 13 25 27 30 31 7 5 7 8 0 8 -5 0 -3 4 5 9 10
7 18 4 28 -10 10 -15 24 -18 67 -17 29 1 52 5 50 9 -3 3 18 16 46 29 27 13 54
29 60 36 6 7 17 10 25 7 9 -3 14 0 12 8 -2 8 3 13 10 12 6 -2 12 4 12 12 0 9
6 12 15 9 9 -4 14 -13 13 -22 -5 -27 18 -23 29 5 11 28 11 28 10 3 0 -14 3
-39 7 -57 4 -19 3 -34 -3 -38 -6 -3 -12 -27 -13 -53 -1 -41 -2 -42 -5 -12 -3
19 -10 41 -16 49 -9 12 -9 13 1 7 9 -5 12 2 11 26 -1 31 -1 32 -9 8 -8 -24 -8
-24 -9 6 -1 19 -7 34 -16 38 -11 4 -15 1 -13 -10 3 -14 -30 -36 -92 -62 -24
-10 -23 -11 6 -5 18 3 35 0 38 -6 4 -5 13 -8 20 -5 16 6 41 -49 32 -71 -3 -8
0 -15 6 -15 7 0 3 -7 -8 -15 -14 -11 -15 -14 -3 -9 14 4 16 -1 14 -28 -2 -18
-4 -42 -5 -53 -2 -17 -3 -16 -11 5 -7 21 -8 20 -4 -9 9 -58 23 -56 36 6 8 37
8 37 4 -7 -2 -24 -8 -46 -14 -48 -7 -2 -8 -14 -5 -29 5 -19 2 -30 -10 -39 -10
-7 -13 -15 -7 -18 7 -5 7 -15 1 -32 -6 -14 -10 -45 -10 -68 0 -37 4 -45 23
-50 34 -9 77 -7 77 4 0 5 8 7 18 4 13 -5 14 -4 3 4 -12 8 -12 15 -1 41 7 17
16 29 20 26 4 -2 7 17 8 43 0 65 9 130 23 174 13 40 29 42 29 2 0 -15 6 -24
15 -24 17 0 21 45 5 55 -5 3 -10 31 -10 62 0 51 -1 54 -17 42 -15 -12 -16 -12
-10 4 4 10 7 21 7 23 0 2 7 4 15 4 8 0 15 -8 15 -18 0 -32 13 -34 27 -5 12 26
12 26 7 3 -3 -14 -12 -42 -21 -63 -13 -29 -14 -40 -5 -49 21 -21 13 -56 -18
-88 -34 -34 -32 -53 4 -44 17 4 28 0 37 -13 20 -28 35 -34 63 -27 17 4 26 14
29 32 l4 27 2 -27 c1 -21 6 -28 21 -28 16 0 19 5 15 33 -5 27 -4 29 5 12 9
-18 10 -17 4 5 -3 14 -7 34 -9 45 -5 31 -6 31 -15 10 -6 -15 -8 -10 -8 21 0
23 5 48 10 55 7 10 8 8 4 -6 -5 -19 -2 -21 29 -17 22 3 35 10 35 19 0 17 -24
43 -39 43 -19 0 -25 52 -9 80 12 22 14 43 8 111 -5 46 -6 136 -3 199 5 116 13
162 13 77 0 -49 4 -52 48 -41 14 4 22 14 22 28 0 17 -2 18 -10 6 -7 -10 -10
10 -10 65 0 45 -5 86 -10 91 -12 12 -3 44 12 44 5 0 6 5 3 10 -11 18 10 10 28
-10 14 -17 14 -20 2 -20 -11 0 -15 -9 -13 -30 1 -17 8 -30 16 -30 7 0 11 4 8
9 -3 5 1 11 9 15 8 3 12 12 9 21 -7 16 -7 16 169 24 16 0 25 5 22 11 -3 6 1 7
9 4 24 -9 20 33 -3 46 -11 5 -32 10 -48 10 -22 0 -25 2 -13 10 13 8 12 10 -2
10 -12 0 -18 8 -18 22 0 17 -3 19 -12 10 -27 -27 -90 -1 -72 30 4 7 4 10 -1 6
-9 -9 -35 9 -35 23 0 5 4 9 10 9 5 0 9 -3 7 -7 -3 -10 6 -13 39 -13 21 0 24 3
15 13 -8 10 -7 14 4 14 8 0 15 -5 15 -11 0 -7 3 -7 8 -1 12 17 47 41 38 28 -4
-8 -1 -13 9 -13 9 0 14 4 11 9 -4 5 4 7 15 4 21 -6 21 -7 3 -20 -10 -8 -27
-12 -36 -9 -10 2 -20 1 -23 -3 -6 -11 26 -11 57 1 17 6 26 17 25 29 -1 12 -7
17 -15 14 -7 -2 -11 -1 -8 4 5 8 73 26 87 23 6 -1 7 3 12 58 4 45 42 127 51
108 3 -7 4 1 2 17 -2 17 -1 66 4 110 4 44 4 85 1 90 -10 18 -14 39 -13 75 1
22 -2 30 -7 21 -6 -9 -11 0 -16 28 -4 22 -10 43 -15 46 -4 3 -6 24 -3 47 5 35
4 40 -10 35 -9 -3 -19 -1 -23 5 -5 7 -2 8 6 3 10 -6 12 -4 7 8 -4 11 -2 14 9
10 16 -6 17 5 16 216 -1 90 -4 126 -14 132 -10 7 -10 9 0 9 6 0 12 7 12 15 0
10 -8 14 -22 11 -13 -2 -22 -10 -20 -17 3 -11 1 -11 -8 -2 -18 17 -3 33 31 33
26 0 29 3 26 26 -2 14 -9 29 -16 33 -10 6 -9 10 3 14 20 8 21 53 2 64 -7 4
-16 15 -19 23 -4 8 -5 2 -2 -15 3 -18 -3 -46 -14 -70 -24 -49 -26 -26 -6 65
17 79 18 83 5 75 -6 -3 -10 5 -10 19 0 26 19 47 22 24 0 -7 2 -17 3 -23 2 -5
3 -16 4 -23 2 -26 24 -6 27 24 4 49 -6 86 -22 80 -9 -3 -6 5 7 23 29 39 31
105 4 126 -11 9 -14 14 -7 10 7 -4 12 0 12 9 0 9 -6 16 -12 16 -9 0 -9 3 -3 8
6 4 11 16 11 27 0 11 -5 23 -11 27 -6 5 -5 8 3 8 10 0 13 11 11 38 -4 40 17
112 32 112 5 0 9 12 9 28 0 16 3 22 8 15 4 -7 8 12 8 42 0 47 -3 56 -21 61
-11 4 -28 15 -37 25 -15 15 -15 18 -3 21 10 2 12 7 5 18 -7 11 -14 12 -27 4
-10 -6 -45 -11 -78 -11 -54 -1 -57 0 -30 9 17 6 32 13 35 15 7 7 -24 23 -45
23 -18 0 -20 6 -17 65 3 42 0 65 -7 65 -6 0 -11 12 -10 28 0 24 1 25 9 7 6
-15 9 -8 9 28 1 44 -11 62 -23 35 -3 -7 -3 -1 0 14 4 16 0 36 -10 50 -16 22
-16 22 -16 1 0 -11 -9 -31 -20 -44 l-20 -24 12 28 c8 20 8 31 1 38 -15 15 -33
3 -34 -24 -1 -18 -2 -19 -6 -4 -3 11 5 29 18 43 19 20 20 26 8 41 -12 14 -12
16 0 8 11 -6 13 -4 7 11 -15 36 -19 84 -8 84 6 0 10 14 8 34 -4 39 -14 59 -27
51 -5 -4 -9 -2 -9 4 0 6 -7 8 -16 4 -13 -5 -14 0 -8 32 4 23 3 36 -3 32 -5 -3
-7 9 -5 27 5 43 -21 70 -60 62 -26 -5 -28 -3 -28 25 0 18 -4 28 -10 24 -5 -3
-10 -2 -10 2 0 16 -80 45 -104 39 -13 -3 -43 1 -66 9 -23 8 -46 12 -51 10 -8
-6 -5 33 7 103 4 18 1 38 -5 46 -11 13 -10 43 4 86 16 51 -26 78 -69 45 -30
-22 -45 -17 -17 5 13 11 38 20 57 20 39 0 50 29 12 31 -17 1 -19 2 -5 6 9 2
17 9 17 14 0 14 -37 11 -44 -3 -5 -10 -7 -10 -12 0 -6 14 -64 17 -64 3 0 -5
-18 -12 -40 -16 -22 -4 -42 -11 -46 -16 -3 -5 -14 -9 -26 -9 -15 0 -19 -5 -15
-19 3 -14 1 -18 -9 -14 -8 3 -14 0 -14 -6 0 -17 -40 -13 -46 4 -4 10 -13 13
-26 9 -11 -3 -31 0 -44 7 -18 9 -21 15 -13 26 9 10 15 10 25 2 8 -6 11 -15 8
-20 -14 -23 24 5 39 29 17 25 18 25 11 3 -6 -22 -4 -23 28 -17 19 3 51 15 71
25 34 17 35 19 14 25 -37 10 -81 7 -109 -8 -16 -8 -28 -11 -28 -5 0 5 -7 9
-16 9 -8 0 -12 -4 -9 -10 3 -5 2 -10 -3 -10 -6 0 -13 7 -16 16 -5 13 -15 15
-52 10 -32 -4 -43 -3 -38 6 4 6 0 16 -8 22 -21 16 -30 46 -14 46 13 0 30 66
20 81 -6 10 -107 -1 -115 -13 -3 -5 -9 -3 -12 4 -4 11 -29 13 -118 11 -63 -1
-136 -3 -162 -3 -35 0 -46 -4 -41 -13 6 -9 5 -9 -7 0 -8 6 -32 12 -54 13 -60
3 -67 1 -59 -12 6 -10 4 -10 -7 0 -15 14 -39 16 -39 3 0 -5 6 -11 13 -14 6 -2
1 -2 -13 0 -14 3 -32 11 -41 19 -9 8 -19 11 -22 8 -4 -4 -12 -2 -19 3 -7 6
-20 11 -28 12 -52 4 -89 15 -84 23 4 6 -9 7 -33 3 -22 -4 -33 -3 -26 2 7 5
-10 9 -44 9 -36 0 -58 4 -61 12 -2 7 -13 12 -23 12 -11 0 -18 -3 -16 -7 3 -5
-19 -8 -48 -8 -29 0 -52 2 -50 5 4 7 -162 3 -173 -4 -5 -3 -47 1 -93 9 -80 15
-263 20 -359 10 -25 -2 -72 -7 -105 -10 l-60 -5 34 15 c18 8 57 15 86 15 70 0
175 11 175 19 0 3 -36 6 -80 5 -44 0 -80 4 -80 9 0 5 -19 6 -42 3 -64 -9 -100
-10 -128 -2 -19 5 -29 2 -40 -14z m-235 -140 c13 -6 15 -9 5 -9 -8 0 -22 4
-30 9 -18 12 -2 12 25 0z m1724 -11 c-22 -13 -31 -11 -17 5 7 8 17 12 22 9 4
-3 2 -9 -5 -14z m207 -16 c-7 -7 -26 7 -26 19 0 6 6 6 15 -2 9 -7 13 -15 11
-17z m49 9 c-3 -3 -11 0 -18 7 -9 10 -8 11 6 5 10 -3 15 -9 12 -12z m205 -5
c0 -7 -10 -13 -22 -14 -20 -2 -21 -1 -5 8 9 6 14 15 11 21 -4 7 -2 8 4 4 7 -4
12 -13 12 -19z m-2364 -27 c9 0 12 5 8 11 -4 7 -1 10 6 7 7 -2 17 -15 22 -27
7 -21 6 -22 -7 -11 -8 7 -24 10 -35 7 -16 -4 -20 0 -19 16 0 12 3 16 6 10 2
-7 11 -13 19 -13z m2314 -30 c0 -11 -2 -20 -4 -20 -2 0 -6 9 -9 20 -3 11 -1
20 4 20 5 0 9 -9 9 -20z m-2455 -70 c3 -5 -1 -10 -10 -10 -9 0 -13 5 -10 10 3
6 8 10 10 10 2 0 7 -4 10 -10z m-55 -20 c-8 -5 -19 -10 -25 -10 -5 0 -3 5 5
10 8 5 20 10 25 10 6 0 3 -5 -5 -10z m2617 4 c-3 -3 -12 -4 -19 -1 -8 3 -5 6
6 6 11 1 17 -2 13 -5z m38 -4 c3 -5 1 -10 -4 -10 -6 0 -11 5 -11 10 0 6 2 10
4 10 3 0 8 -4 11 -10z m345 -3 c0 -33 -87 -42 -97 -10 -3 7 4 9 16 6 12 -3 21
-1 21 6 0 6 14 11 30 11 17 0 30 -5 30 -13z m-103 -53 c-3 -3 -12 -4 -19 -1
-8 3 -5 6 6 6 11 1 17 -2 13 -5z m155 -308 c7 4 8 2 4 -4 -4 -6 -13 -9 -21 -6
-8 4 -12 11 -8 17 5 8 8 7 11 -1 2 -7 9 -9 14 -6z m103 -16 c-22 -5 -51 -11
-65 -14 -21 -5 -20 -4 5 8 17 9 46 15 65 14 l35 -1 -40 -7z m55 -5 c0 -8 -7
-15 -15 -15 -13 0 -14 3 -3 15 16 18 18 18 18 0z m-153 -40 c-16 -17 -17 -14
-10 14 4 15 8 19 13 10 5 -6 3 -18 -3 -24z m313 -101 c0 -2 -9 -4 -20 -4 -11
0 -20 4 -20 9 0 5 9 7 20 4 11 -3 20 -7 20 -9z m-4223 -66 c-3 -8 -6 -5 -6 6
-1 11 2 17 5 13 3 -3 4 -12 1 -19z m-587 -428 c11 -8 8 -9 -11 -4 -15 3 -30 1
-34 -5 -3 -6 -10 -9 -15 -6 -4 3 -13 -2 -20 -10 -7 -8 -17 -15 -23 -15 -11 0
31 34 53 43 23 8 34 8 50 -3z m350 -40 c0 -5 -5 -10 -11 -10 -5 0 -7 5 -4 10
3 6 8 10 11 10 2 0 4 -4 4 -10z m-614 -94 c0 -13 -4 -22 -8 -20 -9 6 -6 44 3
44 4 0 6 -11 5 -24z m5218 -1 c-4 -8 -1 -15 5 -15 6 0 11 -5 11 -11 0 -8 -4
-9 -13 0 -8 6 -17 7 -22 3 -4 -4 -2 3 4 16 13 25 23 30 15 7z m-5311 -50 c-3
-9 -8 -14 -10 -11 -3 3 -2 9 2 15 9 16 15 13 8 -4z m-12 -302 c11 -13 11 -17
1 -20 -6 -3 -10 -9 -6 -14 3 -5 0 -9 -5 -9 -14 0 -14 17 -1 25 16 10 1 25 -23
24 -12 0 -16 -3 -9 -6 19 -8 14 -23 -8 -23 -13 0 -20 7 -20 20 0 15 7 20 29
20 16 0 35 -7 42 -17z m197 -40 c-10 -2 -26 -2 -35 0 -10 3 -2 5 17 5 19 0 27
-2 18 -5z m22 -48 c0 -1 -6 -8 -14 -15 -12 -9 -15 -8 -13 8 0 12 6 18 14 15 7
-3 13 -6 13 -8z m-101 -30 c2 -11 8 -24 15 -28 7 -6 6 -7 -4 -4 -8 2 -16 13
-18 25 -2 11 -11 23 -20 26 -12 3 -12 4 3 3 11 -1 21 -11 24 -22z m5346 -185
c3 -6 -1 -7 -9 -4 -18 7 -21 14 -7 14 6 0 13 -4 16 -10z m-5397 -135 c-3 -3
-9 2 -12 12 -6 14 -5 15 5 6 7 -7 10 -15 7 -18z m-37 -12 c-11 -4 -11 -7 0
-13 10 -7 10 -11 0 -24 -8 -9 -21 -16 -30 -16 -14 0 -14 2 -1 10 13 8 13 11 1
19 -11 7 -10 11 5 20 11 6 24 10 29 10 6 0 4 -3 -4 -6z m65 -48 c-1 -27 -10
-21 -21 12 -5 18 -3 22 8 17 8 -3 14 -16 13 -29z m-116 -17 c0 -5 -7 -3 -15 6
-8 8 -15 18 -15 22 0 3 7 1 15 -6 8 -7 15 -17 15 -22z m-42 -3 c-3 -3 -9 2
-12 12 -6 14 -5 15 5 6 7 -7 10 -15 7 -18z m202 -5 c-8 -5 -19 -10 -25 -10 -5
0 -3 5 5 10 8 5 20 10 25 10 6 0 3 -5 -5 -10z m5350 -180 c0 -5 -5 -10 -11
-10 -5 0 -7 5 -4 10 3 6 8 10 11 10 2 0 4 -4 4 -10z m-5497 -69 c2 -10 1 -25
-4 -32 -6 -10 -9 -11 -9 -1 0 6 -7 12 -15 12 -8 0 -15 -7 -15 -15 0 -8 8 -15
17 -15 22 0 8 -13 -18 -17 -18 -3 -20 1 -15 19 3 13 6 29 6 37 0 8 6 11 15 7
10 -4 15 1 15 15 0 24 15 17 23 -10z m-43 -103 c0 6 5 12 11 12 8 0 8 -5 -1
-15 -13 -16 -30 -11 -30 8 0 7 4 6 10 -3 6 -10 10 -11 10 -2z m-10 -77 c0 -47
-12 -32 -15 20 -3 29 -1 38 6 29 5 -8 9 -30 9 -49z m5468 -141 c-10 -16 -10
-22 3 -32 18 -15 35 -53 19 -43 -6 3 -10 1 -10 -4 0 -6 3 -11 8 -11 24 0 18
-204 -7 -219 -7 -5 -9 -15 -4 -27 6 -16 5 -17 -9 -6 -13 10 -17 10 -22 -3 -3
-8 -3 -22 1 -30 3 -9 -1 -23 -10 -33 -8 -9 -18 -27 -22 -40 -4 -13 -9 -21 -12
-18 -3 2 2 19 10 35 9 17 12 31 7 31 -14 0 -9 113 6 135 8 11 14 24 14 30 0 5
-5 3 -11 -5 -8 -11 -9 -9 -3 10 4 14 7 49 6 79 -2 30 0 63 4 74 6 20 7 20 20
2 11 -15 14 -16 14 -3 0 8 -7 21 -15 28 -20 17 -19 47 3 59 23 14 24 14 10 -9z
m-5443 -2 c4 4 -1 -6 -11 -23 -17 -27 -17 -29 -1 -16 10 8 20 11 24 7 8 -8 2
-13 -22 -18 -16 -2 -21 3 -23 31 -3 29 -1 33 11 23 7 -7 17 -8 22 -4z m5539
-190 c1 -31 4 -54 8 -52 5 3 8 -11 8 -30 0 -19 -4 -37 -10 -41 -5 -3 -7 -12
-3 -20 3 -8 2 -27 -2 -43 -7 -25 -8 -25 -15 -7 -8 19 -9 19 -9 -2 -1 -13 -6
-23 -11 -23 -6 0 -8 11 -3 28 4 15 7 37 6 50 0 12 2 22 6 22 4 0 7 47 7 104
-1 72 2 99 9 88 5 -9 9 -42 9 -74z m-5082 -30 c-6 -6 -10 1 -10 19 0 39 12 54
16 19 2 -16 -1 -33 -6 -38z m-5 -55 c-3 -10 -5 -4 -5 12 0 17 2 24 5 18 2 -7
2 -21 0 -30z m137 -63 c7 0 21 -8 30 -19 15 -16 15 -19 2 -24 -9 -4 -15 -3
-15 1 3 21 -2 33 -13 29 -13 -4 -37 20 -37 38 0 6 4 2 10 -7 5 -10 16 -18 23
-18z m3202 7 c4 -4 0 -7 -9 -7 -9 0 -18 4 -21 9 -7 10 20 9 30 -2z m1654 -37
c0 -5 -2 -10 -4 -10 -3 0 -8 5 -11 10 -3 6 -1 10 4 10 6 0 11 -4 11 -10z
m-4824 -26 c14 5 16 4 8 -4 -6 -6 -21 -12 -33 -13 -25 -2 -27 -12 -5 -25 10
-5 14 -18 12 -33 -4 -22 -5 -23 -12 -4 -4 11 -11 27 -16 36 -4 8 -6 28 -3 42
5 25 7 26 18 11 8 -12 18 -15 31 -10z m41 -46 c-3 -7 -5 -2 -5 12 0 14 2 19 5
13 2 -7 2 -19 0 -25z m-19 -51 c-18 -52 -20 -43 -9 36 0 5 5 6 10 2 6 -3 6
-18 -1 -38z m4885 -24 c-7 -2 -10 -10 -7 -18 3 -7 1 -15 -4 -19 -10 -6 -9 24
2 42 4 7 11 10 15 6 3 -4 1 -9 -6 -11z m-5038 -125 c-6 -35 -9 -39 -16 -23
-11 29 -11 47 1 40 6 -3 10 4 10 16 0 12 3 20 6 16 3 -3 3 -25 -1 -49z m4769
21 c-8 -14 -24 -10 -24 6 0 9 6 12 15 9 8 -4 12 -10 9 -15z m-4747 -101 c-3
-8 -6 -5 -6 6 -1 11 2 17 5 13 3 -3 4 -12 1 -19z m-34 -43 c-3 -9 -8 -14 -10
-11 -3 3 -2 9 2 15 9 16 15 13 8 -4z m4964 -6 c-9 -6 -26 -5 -41 1 -36 13 -33
16 16 12 30 -3 37 -7 25 -13z m-4750 -11 c-3 -8 -6 -5 -6 6 -1 11 2 17 5 13 3
-3 4 -12 1 -19z m4483 -8 c0 -5 -4 -10 -10 -10 -5 0 -10 5 -10 10 0 6 5 10 10
10 6 0 10 -4 10 -10z m-4615 -60 c3 -5 1 -10 -4 -10 -6 0 -11 5 -11 10 0 6 2
10 4 10 3 0 8 -4 11 -10z m152 -162 c-3 -7 -5 -2 -5 12 0 14 2 19 5 13 2 -7 2
-19 0 -25z m213 -88 c0 -3 -7 -7 -15 -7 -8 0 -15 9 -15 20 0 16 3 17 15 7 8
-7 15 -16 15 -20z m20 -24 c0 -15 -24 -16 -37 -1 -4 4 -3 5 4 1 6 -3 14 -2 18
4 9 14 15 12 15 -4z m4049 -87 c-7 -4 -16 -6 -18 -3 -3 3 1 9 8 13 11 7 9 14
-5 37 -11 15 -13 25 -6 21 7 -5 12 -3 13 5 1 7 6 -4 11 -26 8 -30 8 -40 -3
-47z m-406 36 c-3 -9 -8 -14 -10 -11 -3 3 -2 9 2 15 9 16 15 13 8 -4z m-3637
-7 c4 -7 4 -10 -1 -6 -4 4 -14 3 -22 -4 -11 -8 -12 -7 -7 6 7 19 20 21 30 4z
m37 -36 c3 7 6 2 6 -12 1 -14 7 -34 14 -45 21 -31 28 -55 14 -52 -6 1 -13 -8
-15 -20 -2 -15 -10 -23 -22 -23 -17 0 -18 7 -15 68 2 38 1 59 -4 48 -7 -18 -8
-18 -14 -3 -3 9 -4 25 -1 35 5 14 3 14 -11 -3 -11 -13 -14 -30 -11 -50 4 -22
3 -26 -4 -15 -5 8 -10 29 -10 47 0 36 24 48 51 26 14 -12 18 -12 22 -1z m3987
-38 c0 -13 -5 -26 -10 -29 -7 -4 -8 -24 -4 -53 6 -43 6 -46 -9 -33 -12 9 -17
29 -17 65 0 37 3 47 10 36 8 -12 10 -10 10 8 0 13 -4 20 -10 17 -12 -7 -13 6
-3 31 6 16 7 16 20 -2 7 -10 13 -28 13 -40z m40 -6 c-4 -49 -5 -50 -8 -14 -3
34 2 66 10 66 2 0 1 -24 -2 -52z m117 -90 c-2 -13 -4 -5 -4 17 -1 22 1 32 4
23 2 -10 2 -28 0 -40z m-3820 20 c-3 -8 -6 -5 -6 6 -1 11 2 17 5 13 3 -3 4
-12 1 -19z m21 -18 c-1 -22 -2 -39 -2 -38 -1 2 -8 12 -16 22 -10 13 -10 17 -2
12 8 -5 12 1 12 18 0 14 2 26 5 26 3 0 4 -18 3 -40z m3172 25 c-7 -8 -18 -15
-24 -15 -6 0 -2 7 8 15 25 19 32 19 16 0z m504 -29 c-6 -16 -8 -17 -16 -2 -11
19 0 42 13 29 6 -6 7 -18 3 -27z m-3962 -77 c-14 -16 -17 -16 -39 -2 -12 8
-23 17 -23 20 0 2 12 15 28 28 l27 24 11 -26 c9 -21 8 -30 -4 -44z m112 26 c3
-8 1 -15 -4 -15 -6 0 -10 7 -10 15 0 8 2 15 4 15 2 0 6 -7 10 -15z m222 -10
c-1 -30 -2 -31 -17 -4 -8 15 -8 19 0 15 6 -4 11 -2 11 3 0 6 2 11 4 11 2 0 3
-11 2 -25z m-163 -38 c-5 -8 -8 -8 -10 0 -3 7 -10 10 -18 7 -7 -3 -16 -1 -20
5 -3 7 0 8 9 5 9 -4 16 -1 16 6 0 10 3 10 15 0 8 -7 12 -17 8 -23z m3704 -39
c-2 -13 -4 -5 -4 17 -1 22 1 32 4 23 2 -10 2 -28 0 -40z m-597 32 c0 -5 -2
-10 -4 -10 -3 0 -8 5 -11 10 -3 6 -1 10 4 10 6 0 11 -4 11 -10z m-3270 -21 c0
-4 6 -6 14 -3 7 3 16 -2 19 -10 4 -9 15 -16 25 -16 10 0 19 -7 19 -15 0 -19
-4 -19 -34 5 -14 11 -31 20 -37 20 -6 0 -17 9 -23 20 -11 16 -10 18 2 14 8 -4
15 -10 15 -15z m339 -2 c11 3 21 -2 25 -12 3 -9 11 -13 16 -10 8 5 7 11 -1 21
-9 11 -8 14 4 14 20 0 29 -14 21 -34 -8 -20 -28 -20 -44 -1 -7 9 -19 14 -25
11 -14 -5 -35 12 -35 29 0 5 5 3 10 -7 6 -9 18 -14 29 -11z m-88 -70 c-16 -16
-20 -5 -8 23 9 22 11 23 14 6 3 -10 0 -23 -6 -29z m237 2 c-7 -4 -8 -14 -3
-25 5 -11 7 -23 6 -28 -1 -5 4 -13 11 -17 10 -7 8 -9 -6 -9 -14 0 -17 -5 -12
-24 3 -14 2 -28 -4 -31 -13 -8 -13 -35 0 -35 6 0 10 7 10 15 0 8 7 15 16 15 8
0 12 5 9 10 -9 15 16 12 34 -4 10 -9 23 -11 36 -6 18 7 17 9 -12 20 -17 6 -34
18 -37 26 -5 13 -3 13 16 -1 13 -8 31 -15 41 -15 17 0 18 2 6 18 -11 14 -11
15 1 5 8 -7 22 -13 31 -13 10 0 20 -4 23 -9 4 -5 -4 -7 -16 -3 -21 5 -22 4 -9
-12 9 -11 24 -16 38 -13 13 2 26 0 29 -4 3 -5 14 -9 24 -9 10 0 21 -6 23 -12
5 -12 11 16 8 35 -2 12 4 9 45 -24 22 -17 39 -35 39 -41 0 -5 9 -16 20 -24 17
-13 18 -16 5 -24 -13 -9 -13 -11 0 -20 8 -5 24 -9 34 -7 11 1 21 -5 23 -13 4
-12 3 -12 -5 -2 -8 11 -10 11 -15 0 -3 -8 1 -15 9 -16 8 -1 21 -3 29 -4 10 -1
13 -8 10 -20 -9 -27 25 -78 52 -78 13 0 23 -4 23 -10 0 -5 5 -10 11 -10 6 0 8
9 4 21 -4 13 -3 19 2 16 5 -4 10 0 10 7 0 8 -7 12 -14 9 -11 -4 -12 1 -7 23 4
16 7 38 6 49 -1 15 1 16 7 6 6 -10 19 -12 44 -7 24 5 38 3 44 -6 11 -18 69
-49 77 -41 3 3 6 1 6 -5 0 -7 3 -11 8 -11 27 5 35 -2 16 -15 -10 -8 -16 -18
-12 -22 5 -4 16 0 25 8 17 15 19 14 36 -8 14 -19 15 -23 2 -18 -8 3 -15 2 -15
-3 0 -16 41 -34 88 -38 28 -3 42 -1 34 4 -11 7 -11 9 2 14 10 4 16 1 16 -8 0
-10 10 -14 33 -13 38 1 114 -19 122 -32 3 -5 -4 -12 -16 -15 -17 -6 -19 -9 -8
-16 8 -5 21 -8 29 -8 10 0 8 3 -5 9 -19 8 -19 9 3 9 12 1 25 -6 28 -14 4 -8
12 -15 19 -15 7 0 16 -6 19 -12 4 -7 4 -3 2 10 -2 12 0 20 4 17 10 -6 9 -75
-2 -75 -4 0 -8 9 -8 20 0 11 -4 20 -9 20 -15 0 -23 -54 -15 -96 6 -33 8 -36
16 -19 6 16 7 13 4 -10 -4 -28 -3 -29 11 -10 14 19 14 19 9 -5 -7 -40 -17 -60
-27 -54 -5 3 -12 -2 -15 -10 -3 -9 -16 -16 -28 -16 -17 0 -18 -2 -6 -10 12 -8
11 -10 -7 -10 -13 0 -23 -4 -23 -10 0 -5 -9 -10 -20 -10 -11 0 -20 4 -20 9 0
5 6 8 14 7 8 0 16 4 18 9 2 6 -13 11 -32 13 -24 2 -31 0 -21 -6 9 -7 6 -9 -12
-9 -40 0 -119 -34 -113 -49 3 -7 0 -15 -7 -18 -7 -2 -5 -5 5 -5 9 -1 23 6 31
14 13 13 18 12 39 -5 26 -22 18 -26 -15 -8 -20 10 -21 10 -8 -5 13 -16 2 -25
-13 -10 -4 4 -16 8 -26 8 -11 0 -20 5 -21 10 -3 32 -49 48 -49 17 0 -10 -6
-27 -14 -37 -8 -11 -11 -26 -8 -35 5 -11 8 -9 13 10 5 22 7 23 14 7 12 -28
-11 -47 -40 -33 -14 6 -25 15 -25 19 0 5 6 5 13 1 10 -6 10 -4 0 7 -17 17 -16
29 1 29 8 0 17 4 20 9 4 5 -3 7 -14 4 -14 -4 -20 0 -20 11 0 9 -8 16 -17 16
-18 1 -53 22 -53 32 0 3 10 9 23 13 l22 8 -24 4 c-12 3 -35 1 -50 -3 l-26 -7
25 -7 c22 -7 23 -8 4 -9 -12 -1 -27 -8 -34 -16 -9 -11 -15 -12 -25 -2 -11 10
-9 13 9 19 21 6 20 6 -2 7 -13 1 -32 6 -43 11 -24 14 -26 -5 -1 -19 20 -12 21
-12 -45 -15 -57 -2 -61 0 -38 30 17 22 20 94 4 94 -7 0 -10 -15 -7 -40 3 -37
2 -40 -22 -40 -21 0 -29 7 -39 35 -7 19 -28 48 -47 63 -19 15 -34 36 -34 46 0
16 -3 17 -12 8 -14 -14 -32 -16 -23 -2 3 5 -6 12 -20 16 -20 5 -25 12 -25 40
0 32 -1 33 -46 36 -44 3 -47 5 -50 33 -2 22 -1 26 6 15 7 -11 10 -2 10 31 0
26 2 59 5 75 7 39 -8 62 -29 45 -8 -7 -12 -20 -9 -29 3 -9 3 -14 -2 -10 -4 4
-14 3 -21 -3 -9 -8 -8 1 3 31 21 52 11 62 -50 54 -40 -6 -46 -10 -43 -28 3
-21 46 -37 46 -17 0 6 -8 11 -17 11 -9 0 -14 3 -10 6 3 3 20 3 37 -1 l31 -7
-25 -19 c-21 -17 -29 -18 -48 -8 -30 16 -53 39 -39 39 6 0 11 5 11 10 0 6 -18
10 -40 10 -32 0 -40 4 -40 18 0 10 -6 24 -12 31 -11 10 -10 12 1 9 20 -4 25
23 8 46 -19 26 -41 12 -26 -16 20 -38 -14 -14 -37 25 -11 21 -24 34 -27 30 -4
-3 -7 -1 -7 5 0 7 5 12 10 12 6 0 10 10 10 21 0 17 -3 19 -14 10 -9 -7 -17 -8
-20 -2 -3 5 0 12 6 14 8 4 4 8 -9 12 -13 4 -20 11 -17 16 3 5 9 7 14 4 5 -3
17 -1 27 5 10 5 31 15 46 20 28 10 28 11 10 28 -10 9 -12 13 -4 7 12 -8 13 -6
8 8 -9 25 8 21 22 -5 l11 -23 -6 23 c-4 17 -1 22 15 22 12 0 21 4 21 10 0 5
13 1 29 -8 18 -10 25 -19 19 -23z m-210 8 c-1 -2 3 -11 11 -20 7 -10 9 -17 3
-17 -5 0 -15 7 -22 15 -9 11 -9 15 -1 15 7 0 9 5 5 13 -4 6 -4 9 0 5 4 -3 6
-8 4 -11z m282 -73 l25 -15 -25 7 c-14 3 -29 10 -34 15 -16 14 6 10 34 -7z
m115 -14 c3 -5 1 -10 -4 -10 -6 0 -11 5 -11 10 0 6 2 10 4 10 3 0 8 -4 11 -10z
m32 -26 c-3 -3 -12 -4 -19 -1 -8 3 -5 6 6 6 11 1 17 -2 13 -5z m3120 -96 c-3
-8 -6 -5 -6 6 -1 11 2 17 5 13 3 -3 4 -12 1 -19z m-1067 -8 c-7 -4 -9 -16 -5
-29 4 -12 2 -21 -4 -21 -12 0 -15 29 -5 54 3 9 11 13 16 10 6 -4 6 -9 -2 -14z
m-1860 -34 c0 -3 -4 -8 -10 -11 -5 -3 -10 -1 -10 4 0 6 5 11 10 11 6 0 10 -2
10 -4z m195 -26 c3 -5 1 -10 -4 -10 -6 0 -11 5 -11 10 0 6 2 10 4 10 3 0 8 -4
11 -10z m-630 -70 c3 -5 1 -10 -4 -10 -6 0 -11 5 -11 10 0 6 2 10 4 10 3 0 8
-4 11 -10z m505 -25 c0 -5 -5 -3 -10 5 -5 8 -10 20 -10 25 0 6 5 3 10 -5 5 -8
10 -19 10 -25z m-1120 -5 c0 -5 -7 -7 -15 -4 -8 4 -12 10 -9 15 6 11 24 2 24
-11z m35 -30 c3 -5 1 -10 -4 -10 -6 0 -11 5 -11 10 0 6 2 10 4 10 3 0 8 -4 11
-10z m-68 -6 c-3 -3 -12 -4 -19 -1 -8 3 -5 6 6 6 11 1 17 -2 13 -5z m813 -52
c0 -11 -30 -25 -38 -17 -3 3 0 5 7 5 13 0 12 12 -4 55 -6 15 -2 13 13 -7 12
-14 22 -31 22 -36z m705 48 c3 -5 2 -10 -4 -10 -5 0 -13 5 -16 10 -3 6 -2 10
4 10 5 0 13 -4 16 -10z m1632 -16 c-3 -3 -12 -4 -19 -1 -8 3 -5 6 6 6 11 1 17
-2 13 -5z m-1600 -20 c-3 -3 -12 -4 -19 -1 -8 3 -5 6 6 6 11 1 17 -2 13 -5z
m1708 -103 c-6 -5 -25 10 -25 20 0 5 6 4 14 -3 8 -7 12 -15 11 -17z m-315 -50
c0 -6 -4 -13 -10 -16 -5 -3 -10 1 -10 9 0 9 5 16 10 16 6 0 10 -4 10 -9z
m-1110 -37 c0 -8 -4 -12 -10 -9 -5 3 -10 10 -10 16 0 5 5 9 10 9 6 0 10 -7 10
-16z m1168 -14 c7 -11 11 -20 9 -20 -2 0 -12 9 -22 20 -10 11 -14 20 -9 20 5
0 15 -9 22 -20z m382 -15 c0 -7 -5 -17 -12 -21 -7 -5 -8 -3 -4 5 5 7 0 21 -11
33 -18 21 -18 21 5 9 12 -6 22 -18 22 -26z m-3590 -16 c0 -11 5 -17 10 -14 6
3 10 -1 10 -10 0 -9 -4 -13 -10 -10 -6 4 -10 -8 -10 -28 0 -39 -24 -68 -34
-41 -10 25 -7 84 4 84 6 0 10 9 10 20 0 11 5 20 10 20 6 0 10 -9 10 -21z
m3275 -9 c3 -5 1 -10 -4 -10 -6 0 -11 5 -11 10 0 6 2 10 4 10 3 0 8 -4 11 -10z
m-3338 -142 c-3 -7 -5 -2 -5 12 0 14 2 19 5 13 2 -7 2 -19 0 -25z m3769 17
c28 28 33 15 6 -13 -32 -33 -41 -32 -34 5 4 19 7 23 10 11 3 -16 5 -16 18 -3z
m-2136 -43 c-6 -2 -18 0 -28 4 -9 4 -20 6 -24 6 -5 -1 -8 4 -8 12 0 11 6 11
36 -3 19 -8 30 -17 24 -19z m2279 7 c-11 -7 -9 -10 9 -15 12 -4 22 -12 22 -20
0 -9 -10 -7 -35 9 -41 27 -43 35 -9 35 19 0 22 -3 13 -9z m91 -9 c24 -19 24
-21 7 -34 -27 -21 -50 -10 -34 15 10 16 9 21 -3 29 -8 5 -10 10 -5 10 6 0 21
-9 35 -20z m74 -37 c-12 -12 -18 -13 -27 -4 -14 14 8 32 29 24 11 -4 10 -8 -2
-20z m-2287 -19 c-3 -3 -12 -4 -19 -1 -8 3 -5 6 6 6 11 1 17 -2 13 -5z m2442
-43 c10 -6 10 -10 1 -16 -9 -6 -9 -10 1 -16 10 -6 8 -9 -8 -9 -14 0 -23 -6
-23 -16 0 -8 -7 -22 -16 -31 -14 -14 -16 -14 -29 3 -8 11 -15 22 -15 26 0 4
-7 4 -17 1 -11 -4 -14 -3 -9 5 4 7 14 12 22 12 18 0 44 24 44 39 0 13 29 14
49 2z m-146 -58 c-7 -2 -19 -2 -25 0 -7 3 -2 5 12 5 14 0 19 -2 13 -5z m357
-28 c33 -19 10 -19 -26 0 -16 8 -22 15 -14 15 8 -1 26 -7 40 -15z m-148 -47
c-9 -9 -12 -7 -12 12 0 19 3 21 12 12 9 -9 9 -15 0 -24z m123 22 c16 -7 13 -9
-17 -9 -21 -1 -38 4 -38 9 0 12 27 12 55 0z m-157 -48 c6 -18 -24 -42 -52 -42
-19 0 -26 5 -26 18 0 31 68 52 78 24z m152 8 c0 -6 -11 -10 -25 -10 -14 0 -25
4 -25 8 0 4 11 9 25 10 14 1 25 -3 25 -8z m350 -10 c0 -5 -5 -10 -11 -10 -5 0
-7 5 -4 10 3 6 8 10 11 10 2 0 4 -4 4 -10z m-183 -77 c3 -7 -3 -9 -16 -6 -12
3 -21 10 -21 15 0 13 32 6 37 -9z m260 -265 c-3 -7 -5 -2 -5 12 0 14 2 19 5
13 2 -7 2 -19 0 -25z m-4736 -165 c-12 -20 -14 -14 -5 12 4 9 9 14 11 11 3 -2
0 -13 -6 -23z m4709 -713 c0 -22 -3 -40 -8 -40 -4 0 -6 18 -4 40 2 22 6 40 8
40 2 0 4 -18 4 -40z"/>
<path d="M6271 4234 c0 -11 3 -14 6 -6 3 7 2 16 -1 19 -3 4 -6 -2 -5 -13z"/>
<path d="M6281 4134 c0 -11 3 -14 6 -6 3 7 2 16 -1 19 -3 4 -6 -2 -5 -13z"/>
<path d="M1834 3049 c-4 -7 -3 -9 4 -5 6 3 16 -2 22 -11 10 -17 11 -17 8 1 -4
23 -23 32 -34 15z"/>
<path d="M1838 3010 c-7 -24 -3 -38 8 -28 3 4 4 17 2 30 l-3 23 -7 -25z"/>
<path d="M2324 2646 c-8 -20 23 -76 41 -76 18 0 18 4 3 46 -13 37 -36 52 -44
30z"/>
<path d="M2680 2642 c0 -5 7 -15 15 -22 14 -12 14 -15 -1 -31 -21 -23 -12 -25
10 -3 15 14 16 12 16 -20 0 -20 5 -36 10 -36 22 0 9 57 -20 88 -16 18 -30 29
-30 24z"/>
<path d="M2737 2513 c-4 -3 -7 -11 -7 -17 0 -6 5 -5 12 2 6 6 9 14 7 17 -3 3
-9 2 -12 -2z"/>
<path d="M2530 2480 c0 -5 7 -10 15 -10 8 0 15 5 15 10 0 6 -7 10 -15 10 -8 0
-15 -4 -15 -10z"/>
<path d="M3046 2452 c-3 -6 -1 -14 5 -17 15 -10 25 3 12 16 -7 7 -13 7 -17 1z"/>
<path d="M2821 2424 c0 -11 3 -14 6 -6 3 7 2 16 -1 19 -3 4 -6 -2 -5 -13z"/>
<path d="M3070 2419 c0 -6 -6 -9 -14 -6 -16 6 -28 -16 -20 -37 6 -16 76 -16
81 1 2 6 -6 13 -19 16 l-23 4 23 2 c31 2 29 31 -3 31 -14 0 -25 -5 -25 -11z"/>
<path d="M3134 2365 c-4 -8 -17 -15 -29 -15 -13 0 -27 -4 -30 -10 -3 -5 2 -10
12 -10 28 0 73 23 73 38 0 17 -19 15 -26 -3z"/>
<path d="M2898 2363 c7 -3 16 -2 19 1 4 3 -2 6 -13 5 -11 0 -14 -3 -6 -6z"/>
<path d="M2916 2341 c-4 -5 3 -7 14 -4 23 6 26 13 6 13 -8 0 -17 -4 -20 -9z"/>
<path d="M3040 2340 c0 -5 5 -10 10 -10 6 0 10 5 10 10 0 6 -4 10 -10 10 -5 0
-10 -4 -10 -10z"/>
<path d="M3180 2340 c0 -5 5 -10 10 -10 6 0 10 5 10 10 0 6 -4 10 -10 10 -5 0
-10 -4 -10 -10z"/>
<path d="M2580 2320 c0 -5 20 -10 45 -10 25 0 45 5 45 10 0 6 -20 10 -45 10
-25 0 -45 -4 -45 -10z"/>
<path d="M2700 2320 c0 -5 5 -10 10 -10 6 0 10 5 10 10 0 6 -4 10 -10 10 -5 0
-10 -4 -10 -10z"/>
<path d="M2600 2280 c0 -5 8 -10 18 -10 23 0 42 -19 42 -42 0 -10 5 -18 10
-18 19 0 10 26 -18 53 -29 27 -52 35 -52 17z"/>
<path d="M2700 2235 c0 -25 5 -45 10 -45 6 0 10 20 10 45 0 25 -4 45 -10 45
-5 0 -10 -20 -10 -45z"/>
<path d="M2800 2095 c0 -16 27 -32 37 -22 5 6 -21 37 -31 37 -3 0 -6 -7 -6
-15z"/>
<path d="M2978 2003 c7 -3 16 -2 19 1 4 3 -2 6 -13 5 -11 0 -14 -3 -6 -6z"/>
<path d="M3200 1990 c0 -13 7 -20 20 -20 13 0 20 7 20 20 0 13 -7 20 -20 20
-13 0 -20 -7 -20 -20z"/>
<path d="M3338 2003 c6 -2 18 -2 25 0 6 3 1 5 -13 5 -14 0 -19 -2 -12 -5z"/>
<path d="M2875 1980 c4 -6 11 -8 16 -5 14 9 11 15 -7 15 -8 0 -12 -5 -9 -10z"/>
<path d="M5440 1899 c0 -5 5 -7 10 -4 6 3 10 8 10 11 0 2 -4 4 -10 4 -5 0 -10
-5 -10 -11z"/>
<path d="M4162 7253 c3 -16 18 -18 123 -21 132 -3 159 -7 135 -22 -13 -8 -12
-10 3 -10 9 0 17 5 17 11 0 5 4 8 8 5 13 -8 35 11 28 23 -4 6 -38 11 -82 11
-43 0 -74 4 -74 10 0 6 -34 10 -81 10 -71 0 -80 -2 -77 -17z"/>
<path d="M3845 7240 c3 -5 31 -10 61 -10 39 0 56 -4 60 -15 5 -12 8 -12 20 0
28 28 15 35 -67 35 -51 0 -78 -4 -74 -10z"/>
<path d="M3210 7200 c10 -6 11 -10 3 -10 -7 0 -13 -4 -13 -10 0 -13 11 -13 30
0 13 9 13 11 0 20 -8 5 -19 10 -25 10 -5 0 -3 -5 5 -10z"/>
<path d="M4365 7200 c-13 -6 -15 -9 -5 -9 8 0 22 4 30 9 18 12 2 12 -25 0z"/>
<path d="M4475 7200 c-19 -8 -19 -9 3 -9 12 -1 22 4 22 9 0 6 -1 10 -2 9 -2 0
-12 -4 -23 -9z"/>
<path d="M4520 7179 c0 -5 5 -7 10 -4 6 3 10 8 10 11 0 2 -4 4 -10 4 -5 0 -10
-5 -10 -11z"/>
<path d="M2937 7119 c8 -8 16 -8 30 0 16 9 14 10 -11 11 -22 0 -27 -3 -19 -11z"/>
<path d="M2560 6930 c-12 -7 -12 -12 -3 -21 15 -15 26 -7 21 15 -2 11 -7 13
-18 6z"/>
<path d="M2600 6910 c0 -13 11 -13 30 0 12 8 11 10 -7 10 -13 0 -23 -4 -23
-10z"/>
<path d="M2500 6840 l-25 -8 27 -1 c15 -1 30 4 33 9 7 11 0 11 -35 0z"/>
<path d="M2240 6800 c0 -5 14 -10 30 -10 17 0 30 5 30 10 0 6 -13 10 -30 10
-16 0 -30 -4 -30 -10z"/>
<path d="M2101 6625 c-26 -27 -30 -37 -23 -56 9 -23 9 -23 26 9 9 17 30 39 46
47 36 19 37 21 6 27 -17 4 -32 -4 -55 -27z"/>
<path d="M5821 6646 c8 -8 88 -10 95 -3 4 4 -17 7 -46 7 -29 0 -51 -2 -49 -4z"/>
<path d="M5940 6640 c0 -5 14 -10 30 -10 17 0 30 5 30 10 0 6 -13 10 -30 10
-16 0 -30 -4 -30 -10z"/>
<path d="M2139 6591 c-29 -29 -37 -55 -20 -65 5 -3 14 8 21 24 8 19 24 34 46
42 23 8 30 15 21 20 -21 14 -38 9 -68 -21z"/>
<path d="M6060 6534 c0 -21 4 -33 10 -29 6 3 10 19 10 36 0 16 -4 29 -10 29
-5 0 -10 -16 -10 -36z"/>
<path d="M1760 6470 c0 -11 5 -20 10 -20 6 0 10 9 10 20 0 11 -4 20 -10 20 -5
0 -10 -9 -10 -20z"/>
<path d="M1790 6475 c0 -8 7 -15 15 -15 8 0 15 7 15 15 0 8 -7 15 -15 15 -8 0
-15 -7 -15 -15z"/>
<path d="M1840 6481 c0 -15 16 -22 34 -15 25 9 19 24 -9 24 -14 0 -25 -4 -25
-9z"/>
<path d="M6115 6390 c-3 -5 -1 -10 4 -10 6 0 11 5 11 10 0 6 -2 10 -4 10 -3 0
-8 -4 -11 -10z"/>
<path d="M6196 6331 c-8 -12 4 -71 14 -71 10 0 22 59 14 71 -3 5 -9 9 -14 9
-5 0 -11 -4 -14 -9z"/>
<path d="M1600 6315 c0 -8 5 -15 10 -15 6 0 10 7 10 15 0 8 -4 15 -10 15 -5 0
-10 -7 -10 -15z"/>
<path d="M1650 6320 c0 -5 5 -10 11 -10 5 0 7 5 4 10 -3 6 -8 10 -11 10 -2 0
-4 -4 -4 -10z"/>
<path d="M6181 6263 c-1 -32 -12 -54 -23 -47 -6 4 -7 -2 -3 -17 4 -13 12 -25
16 -27 5 -2 9 -12 9 -23 0 -22 15 -25 23 -5 3 8 1 17 -6 20 -7 2 -4 5 6 5 13
1 17 10 17 36 0 19 -4 35 -8 35 -5 0 -14 10 -20 23 l-11 22 0 -22z"/>
<path d="M6233 6205 c0 -22 2 -30 4 -17 2 12 2 30 0 40 -3 9 -5 -1 -4 -23z"/>
<path d="M1440 6160 c0 -5 5 -10 10 -10 6 0 10 5 10 10 0 6 -4 10 -10 10 -5 0
-10 -4 -10 -10z"/>
<path d="M1434 6126 c-9 -23 0 -51 16 -51 10 0 16 12 18 33 2 24 -1 32 -13 32
-8 0 -18 -6 -21 -14z"/>
<path d="M1125 6000 c3 -5 22 -10 41 -10 19 0 34 5 34 10 0 6 -18 10 -41 10
-24 0 -38 -4 -34 -10z"/>
<path d="M1016 5921 c-3 -5 1 -14 8 -20 12 -10 13 -8 9 8 -6 23 -9 25 -17 12z"/>
<path d="M800 5840 c0 -5 5 -10 10 -10 6 0 10 5 10 10 0 6 -4 10 -10 10 -5 0
-10 -4 -10 -10z"/>
<path d="M840 5840 c0 -5 18 -10 40 -10 22 0 40 5 40 10 0 6 -18 10 -40 10
-22 0 -40 -4 -40 -10z"/>
<path d="M6287 5843 c-13 -12 -7 -23 23 -38 36 -19 103 -21 98 -2 -3 6 -16 13
-31 15 -14 2 -31 10 -37 18 -13 15 -42 19 -53 7z"/>
<path d="M846 5804 c-18 -18 -20 -30 -6 -39 12 -8 53 33 45 45 -9 14 -21 12
-39 -6z"/>
<path d="M800 5770 c0 -22 5 -40 10 -40 6 0 10 18 10 40 0 22 -4 40 -10 40 -5
0 -10 -18 -10 -40z"/>
<path d="M800 5670 c0 -11 5 -20 10 -20 6 0 10 9 10 20 0 11 -4 20 -10 20 -5
0 -10 -9 -10 -20z"/>
<path d="M6510 5683 c0 -5 4 -14 9 -22 8 -12 12 -12 25 2 22 22 20 27 -9 27
-14 0 -25 -3 -25 -7z"/>
<path d="M6497 5583 c-12 -11 -8 -53 6 -54 17 -2 51 2 56 6 3 4 -45 55 -52 55
-2 0 -7 -3 -10 -7z"/>
<path d="M6462 5550 c0 -14 2 -19 5 -12 2 6 2 18 0 25 -3 6 -5 1 -5 -13z"/>
<path d="M680 5334 c0 -8 5 -12 10 -9 6 3 10 10 10 16 0 5 -4 9 -10 9 -5 0
-10 -7 -10 -16z"/>
<path d="M640 4945 c0 -8 5 -15 10 -15 6 0 10 7 10 15 0 8 -4 15 -10 15 -5 0
-10 -7 -10 -15z"/>
<path d="M710 4936 c0 -9 5 -16 10 -16 6 0 10 4 10 9 0 6 -4 13 -10 16 -5 3
-10 -1 -10 -9z"/>
<path d="M956 4845 c-10 -27 4 -46 25 -34 23 12 25 35 3 43 -21 8 -21 8 -28
-9z"/>
<path d="M6455 4260 c2 -14 5 -29 6 -35 0 -5 4 -1 9 10 7 14 9 1 9 -45 -1 -94
0 -100 11 -100 17 0 12 149 -5 166 -12 12 -15 12 -16 2 0 -7 -5 -4 -10 7 -8
17 -9 17 -4 -5z"/>
<path d="M6460 4031 c0 -11 4 -22 9 -25 4 -3 6 6 3 19 -5 30 -12 33 -12 6z"/>
<path d="M6426 3885 c-3 -8 -1 -15 4 -15 6 0 10 7 10 15 0 8 -2 15 -4 15 -2 0
-6 -7 -10 -15z"/>
<path d="M1281 3704 c0 -11 3 -14 6 -6 3 7 2 16 -1 19 -3 4 -6 -2 -5 -13z"/>
<path d="M6140 3485 c0 -8 7 -15 15 -15 8 0 15 4 15 9 0 5 -7 11 -15 15 -9 3
-15 0 -15 -9z"/>
<path d="M6180 3483 c0 -18 31 -44 49 -41 27 5 19 33 -9 32 -14 -1 -28 4 -32
10 -6 8 -8 8 -8 -1z"/>
<path d="M1510 3323 c0 -22 2 -25 10 -13 13 20 13 40 0 40 -5 0 -10 -12 -10
-27z"/>
<path d="M1552 3230 c0 -14 2 -19 5 -12 2 6 2 18 0 25 -3 6 -5 1 -5 -13z"/>
<path d="M5495 3000 c-3 -5 -2 -10 4 -10 5 0 13 5 16 10 3 6 2 10 -4 10 -5 0
-13 -4 -16 -10z"/>
<path d="M1754 2849 c-4 -7 -3 -10 3 -6 6 4 16 0 23 -9 12 -13 10 -14 -13 -10
-15 3 -36 8 -47 11 -11 4 -20 2 -20 -4 0 -13 6 -14 78 -16 38 -1 48 1 35 8
-10 6 -25 16 -35 24 -12 11 -18 11 -24 2z"/>
<path d="M5255 2839 c-9 -26 10 -48 26 -32 12 12 3 53 -11 53 -5 0 -12 -9 -15
-21z"/>
<path d="M6002 2780 c0 -14 2 -19 5 -12 2 6 2 18 0 25 -3 6 -5 1 -5 -13z"/>
<path d="M6043 2755 c0 -22 2 -30 4 -17 2 12 2 30 0 40 -3 9 -5 -1 -4 -23z"/>
<path d="M5771 2744 c0 -11 3 -14 6 -6 3 7 2 16 -1 19 -3 4 -6 -2 -5 -13z"/>
<path d="M5601 2710 c0 -8 4 -22 9 -30 12 -18 12 -2 0 25 -6 13 -9 15 -9 5z"/>
<path d="M5025 2670 c-9 -15 4 -30 20 -23 8 3 15 9 15 13 0 12 -29 20 -35 10z"/>
<path d="M5820 2666 c0 -9 7 -16 16 -16 9 0 14 5 12 12 -6 18 -28 21 -28 4z"/>
<path d="M5100 2659 c0 -5 5 -7 10 -4 6 3 10 8 10 11 0 2 -4 4 -10 4 -5 0 -10
-5 -10 -11z"/>
<path d="M1790 2640 c0 -6 7 -13 15 -16 27 -11 17 -34 -15 -34 -29 0 -30 -2
-30 -42 l1 -43 18 23 c11 12 22 22 26 22 12 0 55 50 55 65 0 8 5 15 10 15 6 0
10 5 10 10 0 6 -20 10 -45 10 -25 0 -45 -5 -45 -10z"/>
<path d="M4950 2612 c0 -7 -8 -12 -17 -12 -10 0 -25 -5 -33 -10 -11 -8 -7 -9
15 -4 34 7 52 20 42 31 -4 3 -7 1 -7 -5z"/>
<path d="M4810 2591 c0 -5 7 -11 14 -14 10 -4 13 -1 9 9 -6 15 -23 19 -23 5z"/>
<path d="M4928 2573 c7 -3 16 -2 19 1 4 3 -2 6 -13 5 -11 0 -14 -3 -6 -6z"/>
<path d="M5733 2535 c-9 -10 -10 -16 -2 -21 6 -3 15 0 20 7 18 29 4 40 -18 14z"/>
<path d="M4780 2500 c0 -5 5 -10 10 -10 6 0 10 5 10 10 0 6 -4 10 -10 10 -5 0
-10 -4 -10 -10z"/>
<path d="M4940 2430 c0 -11 5 -20 10 -20 6 0 10 9 10 20 0 11 -4 20 -10 20 -5
0 -10 -9 -10 -20z"/>
<path d="M4750 2391 c0 -10 19 -25 25 -20 1 2 -3 10 -11 17 -8 7 -14 8 -14 3z"/>
<path d="M5000 2320 c0 -5 18 -10 40 -10 22 0 40 5 40 10 0 6 -18 10 -40 10
-22 0 -40 -4 -40 -10z"/>
<path d="M5100 2250 c0 -22 5 -40 10 -40 6 0 10 18 10 40 0 22 -4 40 -10 40
-5 0 -10 -18 -10 -40z"/>
<path d="M5660 2000 c0 -5 6 -10 14 -10 8 0 18 5 21 10 3 6 -3 10 -14 10 -12
0 -21 -4 -21 -10z"/>
<path d="M5815 1919 c-4 -6 -5 -12 -2 -15 2 -3 7 2 10 11 7 17 1 20 -8 4z"/>
<path d="M6100 1840 c0 -5 14 -10 30 -10 17 0 30 5 30 10 0 6 -13 10 -30 10
-16 0 -30 -4 -30 -10z"/>
<path d="M6220 1740 c0 -16 5 -30 10 -30 6 0 10 14 10 30 0 17 -4 30 -10 30
-5 0 -10 -13 -10 -30z"/>
<path d="M6360 1608 c1 -23 21 -58 34 -58 3 0 6 18 6 40 0 33 -3 40 -20 40
-14 0 -20 -7 -20 -22z"/>
<path d="M1454 1585 c3 -8 1 -15 -5 -15 -6 0 -9 -10 -7 -22 2 -17 9 -22 23
-20 25 5 23 1 18 40 -3 19 -11 32 -20 32 -9 0 -13 -6 -9 -15z"/>
<path d="M6391 1394 c0 -11 3 -14 6 -6 3 7 2 16 -1 19 -3 4 -6 -2 -5 -13z"/>
<path d="M6391 1244 c0 -11 3 -14 6 -6 3 7 2 16 -1 19 -3 4 -6 -2 -5 -13z"/>
<path d="M1495 1201 c-3 -5 3 -17 12 -27 11 -11 18 -13 21 -5 9 28 -18 55 -33
32z"/>
<path d="M6188 1204 c-5 -4 -8 -40 -8 -81 0 -44 -4 -73 -10 -73 -7 0 -10 -29
-8 -77 3 -76 4 -78 28 -78 24 0 25 3 28 65 2 35 -2 73 -7 85 -6 11 -12 53 -13
93 -2 41 -6 70 -10 66z"/>
<path d="M1441 1063 c0 -10 4 -27 9 -38 7 -17 9 -15 9 12 1 17 -3 35 -9 38 -5
3 -10 -2 -9 -12z"/>
<path d="M6241 1064 c0 -11 3 -14 6 -6 3 7 2 16 -1 19 -3 4 -6 -2 -5 -13z"/>
<path d="M1442 975 c0 -16 2 -22 5 -12 2 9 2 23 0 30 -3 6 -5 -1 -5 -18z"/>
<path d="M6220 865 c0 -8 5 -15 10 -15 6 0 10 7 10 15 0 8 -4 15 -10 15 -5 0
-10 -7 -10 -15z"/>
<path d="M6391 794 c0 -11 3 -14 6 -6 3 7 2 16 -1 19 -3 4 -6 -2 -5 -13z"/>
<path d="M1380 758 c0 -7 -3 -23 -6 -35 -4 -13 -2 -23 2 -23 5 0 10 16 11 35
2 19 1 35 -2 35 -3 0 -5 -6 -5 -12z"/>
<path d="M1310 711 c0 -34 12 -81 21 -81 5 0 9 13 9 28 0 15 5 33 11 39 15 15
3 33 -22 33 -12 0 -19 -7 -19 -19z"/>
<path d="M1367 671 c-4 -17 -3 -21 5 -13 5 5 8 16 6 23 -3 8 -7 3 -11 -10z"/>
<path d="M1292 600 c0 -14 2 -19 5 -12 2 6 2 18 0 25 -3 6 -5 1 -5 -13z"/>
<path d="M1288 428 c-2 -13 -1 -34 3 -48 4 -18 6 -12 7 23 0 51 -3 60 -10 25z"/>
<path d="M6391 424 c0 -11 3 -14 6 -6 3 7 2 16 -1 19 -3 4 -6 -2 -5 -13z"/>
<path d="M6372 360 c0 -19 2 -27 5 -17 2 9 2 25 0 35 -3 9 -5 1 -5 -18z"/>
<path d="M1283 319 c-2 -23 3 -25 10 -4 4 8 3 16 -1 19 -4 3 -9 -4 -9 -15z"/>
<path d="M6053 315 c-21 -23 -16 -65 7 -65 17 0 20 7 20 40 0 42 -7 48 -27 25z"/>
<path d="M6370 287 c0 -7 7 -30 15 -52 l14 -40 1 46 c0 33 -5 49 -15 53 -8 3
-15 0 -15 -7z"/>
</g>
</svg>
